<svg width="16" height="16" viewBox="0 0 16 16" fill="none" xmlns="http://www.w3.org/2000/svg">
<g clip-path="url(#clip0_1_1393)">
<path fill-rule="evenodd" clip-rule="evenodd" d="M5.82591 3.84351C5.80542 3.84249 5.78486 3.84198 5.76424 3.84198L4.84657 3.84198C4.27148 3.84198 3.71994 4.05773 3.31329 4.44177L0.946643 6.67685C0.614801 6.99024 0.61818 7.49933 0.954157 7.80877C1.09861 7.94182 1.28837 8.02106 1.48857 8.03312C1.50637 8.03419 1.52426 8.03474 1.54221 8.03474L2.95606 8.25041C2.7861 8.74056 2.67825 9.21088 2.63653 9.65001C2.63218 9.69578 2.62854 9.7412 2.62564 9.78628L2.62321 9.82689L5.5947 12.6332C5.78079 12.624 5.97265 12.6044 6.16947 12.5745C6.49265 12.5255 6.82921 12.4488 7.17551 12.3457L7.40387 13.5868C7.40387 13.6331 7.40815 13.679 7.4165 13.724C7.44557 13.8807 7.52398 14.0268 7.64314 14.1421C7.9708 14.4594 8.50985 14.4626 8.84169 14.1492L11.2083 11.9142C11.615 11.5301 11.8434 11.0093 11.8434 10.4661V9.68249C12.079 9.48329 12.3122 9.27501 12.542 9.05798C15.2678 6.4837 16.7585 1.45579 15.6085 0.369765C14.4586 -0.716263 9.1347 0.691551 6.40887 3.26584C6.20735 3.45616 6.01295 3.64893 5.82591 3.84351ZM10.75 6.5C10.75 7.32843 10.0784 8 9.25 8C8.42157 8 7.75 7.32843 7.75 6.5C7.75 5.67157 8.42157 5 9.25 5C10.0784 5 10.75 5.67157 10.75 6.5Z" fill="#4D5061"/>
<path d="M1.17173 12.6728C0.863629 12.5647 0.532773 12.5382 0.2114 12.596C0.153343 12.6086 0.0929044 12.5904 0.0513464 12.548C-0.000572752 12.4963 -0.0146395 12.4176 0.0161341 12.3511C0.357051 11.6181 1.26136 10.144 2.89873 11.3348C2.91602 11.3502 2.92591 11.3724 2.92591 11.3956C2.92591 11.4188 2.91602 11.4409 2.89873 11.4564C2.45415 11.8065 2.20276 12.3473 2.22169 12.9129C2.22416 12.9808 2.27864 13.0353 2.34654 13.0378C2.90965 13.0604 3.45012 12.8145 3.80304 12.3751C3.81854 12.3561 3.84175 12.3451 3.86626 12.3451C3.89077 12.3451 3.91398 12.3561 3.92948 12.3751C4.15676 12.6456 4.78257 13.5291 4.08954 14.3822C3.78698 14.7459 3.35347 14.9758 2.88272 15.0224C2.21049 15.0945 0.968461 15.3137 0.461087 15.8931C0.419587 15.9423 0.354392 15.9646 0.291459 15.9512C0.228525 15.9379 0.178071 15.8909 0.160184 15.8291C-0.0190786 15.2177 -0.297574 13.8508 1.17173 12.6728Z" fill="#4D5061"/>
</g>
<defs>
<clipPath id="clip0_1_1393">
<rect width="16" height="16" fill="white"/>
</clipPath>
</defs>
</svg>
